<svg width="22" height="26" viewBox="0 0 22 26" fill="none" xmlns="http://www.w3.org/2000/svg">
<path d="M5.18571 4.22501V8.60119C4.8234 8.52742 4.45498 8.49042 4.08571 8.49069C1.73279 8.49069 0 10.2717 0 13.1626C0 15.4637 2.38351 16.0572 3.86886 17.0071C4.47842 17.3999 5.01389 17.8701 5.50182 18.3198L5.50899 18.3265L5.51625 18.333C6.37445 19.111 6.67857 19.512 6.67857 19.8657V20.0017C6.43539 20.2935 6.28571 20.6891 6.28571 21.125V24.375C6.28571 25.2725 6.9189 26 7.7 26H19.0143C19.7954 26 20.4286 25.2725 20.4286 24.375V21.125C20.4286 20.6891 20.2789 20.2935 20.0357 20.0017V19.8657C20.0357 18.4088 22 16.4564 22 13.4063V12.3247C22 9.14872 20.1016 7.30749 17.5241 7.2496C16.6494 6.61574 15.5213 6.3106 14.4406 6.43786C14.0973 6.25699 13.7333 6.1217 13.3571 6.03521V4.22501C13.3571 1.91776 11.5115 0 9.27143 0C7.05675 0 5.18571 1.93482 5.18571 4.22501ZM11 4.22501V8.84743C11.7204 8.19555 13.103 8.11542 13.998 9.0988C14.9627 8.52868 16.2385 9.01313 16.6314 9.75515C18.5528 9.42385 19.6429 10.2668 19.6429 12.3247V13.4063C19.6429 15.7164 17.8793 17.3271 17.6945 19.5H9.01465C8.86909 18.2184 7.9725 17.3182 7.0702 16.5001C6.449 15.9276 5.82779 15.3969 5.11205 14.9361C3.96354 14.2008 2.35714 13.6091 2.35714 13.1625C2.35714 11.9755 2.78929 10.9281 4.08571 10.9281C5.81429 10.9281 6.69208 12.2688 7.54286 12.2688V4.22501C7.54286 3.28936 8.35312 2.4375 9.27143 2.4375C10.2032 2.4375 11 3.26143 11 4.22501ZM17.2857 21.5313C17.9366 21.5313 18.4643 22.0769 18.4643 22.75C18.4643 23.4232 17.9366 23.9688 17.2857 23.9688C16.6348 23.9688 16.1071 23.4232 16.1071 22.75C16.1071 22.0769 16.6348 21.5313 17.2857 21.5313Z" fill="#999999"/>
</svg>
